<svg xmlns="http://www.w3.org/2000/svg" style="display: none;">
    <symbol id="marker-remove" viewBox="0 0 24 24">
        <path d="M16.6 14.2L15.2 15.6L17.6 18L15.2 20.4L16.6 21.8L19 19.4L21.4 21.8L22.8 20.4L20.4 18L22.8 15.6L21.4 14.2L19 16.6M9 6.5C10.4 6.5 11.5 7.6 11.5 9S10.4 11.5 9 11.5 6.5 10.4 6.5 9 7.6 6.5 9 6.5M9 2C12.9 2 16 5.1 16 9C16 14.2 9 22 9 22S2 14.2 2 9C2 5.1 5.1 2 9 2M9 4C6.2 4 4 6.2 4 9C4 10 4 12 9 18.7C14 12 14 10 14 9C14 6.2 11.8 4 9 4Z" />
    </symbol>
    <symbol id="arrow-left" viewBox="0 0 24 24" fill="none">
        <g>
            <g id="Icon/arrow-down">
                <path id="Path 2" d="M21 12L3 12" stroke-linecap="round" />
                <path id="Path 3" d="M9 6L3 12L9 18" stroke-linecap="round" />
            </g>
        </g>

    </symbol>
    <symbol id="clock" viewBox="0 0 12 12">
        <path d="M5.6875 0C2.5532 0 0 2.55301 0 5.68701C0 8.82201 2.5532 11.375 5.6875 11.375C8.8218 11.375 11.375 8.82201 11.375 5.68701C11.375 2.55301 8.8218 0 5.6875 0ZM5.6875 0.875C8.3501 0.875 10.5 3.02501 10.5 5.68701C10.5 8.35001 8.3501 10.5 5.6875 10.5C3.0249 10.5 0.875 8.35001 0.875 5.68701C0.875 3.02501 3.0249 0.875 5.6875 0.875ZM5.25 1.75V6.125H7.875V5.25H6.125V1.75H5.25Z" />
    </symbol>
    <symbol id="people-icon" viewBox="0 0 20 21" fill="none">
        <path d="M0.833344 15.75C0.833344 13.7812 3.33334 13.7812 4.58334 12.4688C5.20834 11.8125 3.33334 11.8125 3.33334 8.53125C3.33334 6.34397 4.16647 5.25 5.83334 5.25C7.50022 5.25 8.33334 6.34397 8.33334 8.53125C8.33334 11.8125 6.45834 11.8125 7.08334 12.4688C8.33334 13.7812 10.8333 13.7812 10.8333 15.75" stroke-linecap="round" />
        <path d="M9.99557 14.2127C10.4681 13.8708 11.0815 13.6246 11.6684 13.3278C12.1273 13.0957 12.57 12.8327 12.9167 12.4688C13.5417 11.8125 11.6667 11.8125 11.6667 8.53125C11.6667 6.34397 12.4997 5.25 14.1667 5.25C15.8335 5.25 16.6667 6.34397 16.6667 8.53125C16.6667 11.8125 14.7917 11.8125 15.4167 12.4688C16.6667 13.7812 19.1667 13.7812 19.1667 15.75" stroke-linecap="round"/>
    </symbol>
    <symbol id="restaurant" viewBox="0 0 24 24" fill="none">
        <path id="Path 25" d="M8 4V20" stroke-linecap="round" stroke-linejoin="round" />
        <path id="Path 25_2" d="M18 12C18 12 15 11 15 8C15 5 18 4 18 4V20" stroke-linecap="round" stroke-linejoin="round" />
        <path id="Path 26" d="M5 4V7C5 8.65685 6.34315 10 8 10V10C9.65685 10 11 8.65685 11 7V4" stroke-linecap="round" stroke-linejoin="round" />
    </symbol>
    <symbol id="add" viewBox="0 0 24 24" fill="none">
        <g id="plus">
            <path id="Path 2" d="M20 12H4" stroke-linecap="round" />
            <path id="Path 2_2" d="M12 4V20" stroke-linecap="round" />
        </g>
    </symbol>
    <symbol id="home" viewBox="0 0 24 24" fill="none">
        <path id="Path 6" d="M3 22.1818V10.1818L12 2L21 10.1818V22.1818H3Z" />
        <rect id="Rectangle" x="9" y="14" width="6" height="8" rx="1" />
    </symbol>
    <symbol id="circle" viewBox="0 0 512 512" style="enable-background:new 0 0 512 512;">
       <path d="M256,0C115.39,0,0,115.39,0,256s115.39,256,256,256s256-115.39,256-256S396.61,0,256,0z"/>
    </symbol>
</svg>