<svg xmlns="http://www.w3.org/2000/svg" style="display: none;">
    <symbol id="marker-remove" viewBox="0 0 24 24">
        <path d="M16.6 14.2L15.2 15.6L17.6 18L15.2 20.4L16.6 21.8L19 19.4L21.4 21.8L22.8 20.4L20.4 18L22.8 15.6L21.4 14.2L19 16.6M9 6.5C10.4 6.5 11.5 7.6 11.5 9S10.4 11.5 9 11.5 6.5 10.4 6.5 9 7.6 6.5 9 6.5M9 2C12.9 2 16 5.1 16 9C16 14.2 9 22 9 22S2 14.2 2 9C2 5.1 5.1 2 9 2M9 4C6.2 4 4 6.2 4 9C4 10 4 12 9 18.7C14 12 14 10 14 9C14 6.2 11.8 4 9 4Z" />
    </symbol>
    <symbol id="arrow-left" viewBox="0 0 24 24">
        <path d="M21 12L3 12" stroke-linecap="round" />
        <path d="M9 6L3 12L9 18" stroke-linecap="round" />
    </symbol>
    <symbol id="clock" viewBox="0 0 12 12">
            <path d="M5.6875 0C2.5532 0 0 2.55301 0 5.68701C0 8.82201 2.5532 11.375 5.6875 11.375C8.8218 11.375 11.375 8.82201 11.375 5.68701C11.375 2.55301 8.8218 0 5.6875 0ZM5.6875 0.875C8.3501 0.875 10.5 3.02501 10.5 5.68701C10.5 8.35001 8.3501 10.5 5.6875 10.5C3.0249 10.5 0.875 8.35001 0.875 5.68701C0.875 3.02501 3.0249 0.875 5.6875 0.875ZM5.25 1.75V6.125H7.875V5.25H6.125V1.75H5.25Z" />
    </symbol>
</svg>