<svg xmlns="http://www.w3.org/2000/svg" style="display: none;">
    <symbol id="marker-remove" viewBox="0 0 24 24">
        <path d="M16.6 14.2L15.2 15.6L17.6 18L15.2 20.4L16.6 21.8L19 19.4L21.4 21.8L22.8 20.4L20.4 18L22.8 15.6L21.4 14.2L19 16.6M9 6.5C10.4 6.5 11.5 7.6 11.5 9S10.4 11.5 9 11.5 6.5 10.4 6.5 9 7.6 6.5 9 6.5M9 2C12.9 2 16 5.1 16 9C16 14.2 9 22 9 22S2 14.2 2 9C2 5.1 5.1 2 9 2M9 4C6.2 4 4 6.2 4 9C4 10 4 12 9 18.7C14 12 14 10 14 9C14 6.2 11.8 4 9 4Z" />
    </symbol>
    <symbol id="arrow-left" viewBox="0 0 24 24" fill="none">
        <path id="Path 2" d="M21 12L3 12" stroke-linecap="round" />
        <path id="Path 3" d="M9 6L3 12L9 18" stroke-linecap="round" />
    </symbol>
    <symbol id="clock" viewBox="0 0 12 12">
        <path d="M5.6875 0C2.5532 0 0 2.55301 0 5.68701C0 8.82201 2.5532 11.375 5.6875 11.375C8.8218 11.375 11.375 8.82201 11.375 5.68701C11.375 2.55301 8.8218 0 5.6875 0ZM5.6875 0.875C8.3501 0.875 10.5 3.02501 10.5 5.68701C10.5 8.35001 8.3501 10.5 5.6875 10.5C3.0249 10.5 0.875 8.35001 0.875 5.68701C0.875 3.02501 3.0249 0.875 5.6875 0.875ZM5.25 1.75V6.125H7.875V5.25H6.125V1.75H5.25Z" />
    </symbol>
    <symbol id="people-icon" viewBox="0 0 20 21" fill="none">
        <path d="M0.833344 15.75C0.833344 13.7812 3.33334 13.7812 4.58334 12.4688C5.20834 11.8125 3.33334 11.8125 3.33334 8.53125C3.33334 6.34397 4.16647 5.25 5.83334 5.25C7.50022 5.25 8.33334 6.34397 8.33334 8.53125C8.33334 11.8125 6.45834 11.8125 7.08334 12.4688C8.33334 13.7812 10.8333 13.7812 10.8333 15.75" stroke-linecap="round" />
        <path d="M9.99557 14.2127C10.4681 13.8708 11.0815 13.6246 11.6684 13.3278C12.1273 13.0957 12.57 12.8327 12.9167 12.4688C13.5417 11.8125 11.6667 11.8125 11.6667 8.53125C11.6667 6.34397 12.4997 5.25 14.1667 5.25C15.8335 5.25 16.6667 6.34397 16.6667 8.53125C16.6667 11.8125 14.7917 11.8125 15.4167 12.4688C16.6667 13.7812 19.1667 13.7812 19.1667 15.75" stroke-linecap="round"/>
    </symbol>
    <symbol id="restaurant" viewBox="0 0 24 24" fill="none">
        <path id="Path 25" d="M8 4V20" stroke-linecap="round" stroke-linejoin="round" />
        <path id="Path 25_2" d="M18 12C18 12 15 11 15 8C15 5 18 4 18 4V20" stroke-linecap="round" stroke-linejoin="round" />
        <path id="Path 26" d="M5 4V7C5 8.65685 6.34315 10 8 10V10C9.65685 10 11 8.65685 11 7V4" stroke-linecap="round" stroke-linejoin="round" />
    </symbol>
    <symbol id="add" viewBox="0 0 24 24" fill="none">
        <path id="Path 2" d="M20 12H4" stroke-linecap="round" />
        <path id="Path 2_2" d="M12 4V20" stroke-linecap="round" />
    </symbol>
    <symbol id="home" viewBox="0 0 24 24" fill="none">
        <path id="Path 6" d="M3 22.1818V10.1818L12 2L21 10.1818V22.1818H3Z" />
        <rect id="Rectangle" x="9" y="14" width="6" height="8" rx="1" />
    </symbol>
    <symbol id="circle" viewBox="0 0 512 512" style="enable-background:new 0 0 512 512;">
        <path d="M256,0C115.39,0,0,115.39,0,256s115.39,256,256,256s256-115.39,256-256S396.61,0,256,0z"/>
    </symbol>
    <symbol id="delete" viewBox="-40 0 427 427.00131" fill="current">
        <path d="m232.398438 154.703125c-5.523438 0-10 4.476563-10 10v189c0 5.519531 4.476562 10 10 10 5.523437 0 10-4.480469 10-10v-189c0-5.523437-4.476563-10-10-10zm0 0"/>
        <path d="m114.398438 154.703125c-5.523438 0-10 4.476563-10 10v189c0 5.519531 4.476562 10 10 10 5.523437 0 10-4.480469 10-10v-189c0-5.523437-4.476563-10-10-10zm0 0"/>
        <path d="m28.398438 127.121094v246.378906c0 14.5625 5.339843 28.238281 14.667968 38.050781 9.285156 9.839844 22.207032 15.425781 35.730469 15.449219h189.203125c13.527344-.023438 26.449219-5.609375 35.730469-15.449219 9.328125-9.8125 14.667969-23.488281 14.667969-38.050781v-246.378906c18.542968-4.921875 30.558593-22.835938 28.078124-41.863282-2.484374-19.023437-18.691406-33.253906-37.878906-33.257812h-51.199218v-12.5c.058593-10.511719-4.097657-20.605469-11.539063-28.03125-7.441406-7.421875-17.550781-11.5546875-28.0625-11.46875h-88.796875c-10.511719-.0859375-20.621094 4.046875-28.0625 11.46875-7.441406 7.425781-11.597656 17.519531-11.539062 28.03125v12.5h-51.199219c-19.1875.003906-35.394531 14.234375-37.878907 33.257812-2.480468 19.027344 9.535157 36.941407 28.078126 41.863282zm239.601562 279.878906h-189.203125c-17.097656 0-30.398437-14.6875-30.398437-33.5v-245.5h250v245.5c0 18.8125-13.300782 33.5-30.398438 33.5zm-158.601562-367.5c-.066407-5.207031 1.980468-10.21875 5.675781-13.894531 3.691406-3.675781 8.714843-5.695313 13.925781-5.605469h88.796875c5.210937-.089844 10.234375 1.929688 13.925781 5.605469 3.695313 3.671875 5.742188 8.6875 5.675782 13.894531v12.5h-128zm-71.199219 32.5h270.398437c9.941406 0 18 8.058594 18 18s-8.058594 18-18 18h-270.398437c-9.941407 0-18-8.058594-18-18s8.058593-18 18-18zm0 0"/>
        <path d="m173.398438 154.703125c-5.523438 0-10 4.476563-10 10v189c0 5.519531 4.476562 10 10 10 5.523437 0 10-4.480469 10-10v-189c0-5.523437-4.476563-10-10-10zm0 0"/>
    </symbol>
    <symbol id="increase" viewBox="0 0 512 512">
        <path d="m256 512c-141.164062 0-256-114.835938-256-256s114.835938-256 256-256 256 114.835938 256 256-114.835938 256-256 256zm0-480c-123.519531 0-224 100.480469-224 224s100.480469 224 224 224 224-100.480469 224-224-100.480469-224-224-224zm0 0"/>
        <path d="m368 272h-224c-8.832031 0-16-7.167969-16-16s7.167969-16 16-16h224c8.832031 0 16 7.167969 16 16s-7.167969 16-16 16zm0 0"/>
        <path d="m256 384c-8.832031 0-16-7.167969-16-16v-224c0-8.832031 7.167969-16 16-16s16 7.167969 16 16v224c0 8.832031-7.167969 16-16 16zm0 0"/>
    </symbol>
    <symbol id="decrease" viewBox="0 0 512 512" style="enable-background:new 0 0 512 512;">
        <path d="M256,0C114.853,0,0,114.833,0,256s114.853,256,256,256c141.167,0,256-114.833,256-256S397.147,0,256,0z M256,472.341
			c-119.295,0-216.341-97.046-216.341-216.341S136.705,39.659,256,39.659S472.341,136.705,472.341,256S375.295,472.341,256,472.341z
			"/>
        <path d="M355.148,234.386H156.852c-10.946,0-19.83,8.884-19.83,19.83s8.884,19.83,19.83,19.83h198.296
			c10.946,0,19.83-8.884,19.83-19.83S366.094,234.386,355.148,234.386z"/>
    </symbol>

    <symbol id="edit" viewBox="0 0 64 64" fill="current">
        <g>
            <g transform="translate(179.000000, 382.000000)">
                <path d="M-168.2-328l3.7-14.9l22.7-22.7l11.2,11.2l-22.7,22.7L-168.2-328L-168.2-328z M-161.9-341.5l-2.4,9.6l9.6-2.4l20.2-20.2l-7.2-7.2L-161.9-341.5L-161.9-341.5z"/>
                <path d="M-155.7-332.6c-1-3.9-4-6.9-7.9-7.9l0.7-2.8c4.9,1.2,8.7,5,9.9,9.9L-155.7-332.6" />
                <polyline points="-156,-338.1 -158,-340.2 -138.1,-360.1 -136.1,-358.1 -156,-338.1    "/>
                <path d="M-166.2-330l4.4-1.1c-0.4-1.6-1.7-2.9-3.3-3.3L-166.2-330"/>
                <path d="M-129.5-355.5l-11.2-11.2l4.5-4.5l0.7,0.1c5.4,0.7,9.7,5,10.4,10.4l0.1,0.7L-129.5-355.5L-129.5-355.5z M-136.6-366.7l7.2,7.2l1.4-1.4c-0.8-3.6-3.6-6.4-7.2-7.2L-136.6-366.7L-136.6-366.7z"/>
            </g>
        </g>
    </svg>


</symbol>

</svg>